<?xml version="1.0" standalone="no"?><!DOCTYPE svg PUBLIC "-//W3C//DTD SVG 1.1//EN" "http://www.w3.org/Graphics/SVG/1.1/DTD/svg11.dtd"><svg t="1540448422529" class="icon" style="" viewBox="0 0 1024 1024" version="1.1" xmlns="http://www.w3.org/2000/svg" p-id="5273" xmlns:xlink="http://www.w3.org/1999/xlink" width="200" height="200"><defs><style type="text/css"></style></defs><path d="M74.816 935.869c0-195.29 155.345-355.074 348.416-361.731h22.192c195.29 4.438 355.073 164.221 355.073 361.73 0 13.316 8.877 22.193 22.192 22.193s22.192-8.877 22.192-22.192c0-184.194-124.275-341.758-292.935-390.58 82.11-42.166 137.59-128.715 137.59-228.58 0-142.029-115.398-257.428-257.428-257.428-142.029 0-257.428 115.4-257.428 257.429 0 99.864 57.7 186.413 142.03 230.797C150.269 598.55 30.432 753.894 30.432 935.87c0 13.315 8.877 22.192 22.192 22.192s22.192-11.096 22.192-22.192z m144.248-619.16c0-117.617 95.426-213.043 213.044-213.043s213.045 95.426 213.045 213.044c0 113.18-88.769 204.167-199.73 213.044h-22.191c-113.18-6.658-204.168-99.865-204.168-213.044z" fill="#333333" p-id="5274"></path><path d="M780.524 518.658c59.919-35.508 97.645-99.865 97.645-173.099 0-110.96-90.987-201.948-201.948-201.948-13.315 0-22.192 8.877-22.192 22.192s8.877 22.193 22.192 22.193c86.55 0 157.564 71.014 157.564 157.563 0 79.892-59.918 148.687-142.03 157.564-11.095 2.22-19.972 11.096-19.972 22.192s8.877 19.973 19.973 22.192c144.248 8.877 255.209 128.714 255.209 272.963 0 13.315 8.877 22.192 22.192 22.192s22.192-8.877 22.192-22.192c4.438-139.81-84.33-257.428-210.825-301.812z" fill="#333333" p-id="5275"></path></svg>