<?xml version="1.0" standalone="no"?><!DOCTYPE svg PUBLIC "-//W3C//DTD SVG 1.1//EN" "http://www.w3.org/Graphics/SVG/1.1/DTD/svg11.dtd"><svg t="1540350390206" class="icon" style="" viewBox="0 0 1024 1024" version="1.1" xmlns="http://www.w3.org/2000/svg" p-id="2114" xmlns:xlink="http://www.w3.org/1999/xlink" width="200" height="200"><defs><style type="text/css"></style></defs><path d="M961.88954375 447.62352969L598.21895563 68.14117625c-22.58823563-23.7176475-53.0823525-36.14117625-85.83529407-36.14117625C480.76013187 32 450.26601406 44.42352969 427.67777844 68.14117625L62.87777844 447.62352969C25.60719031 487.15294156 30.12483781 521.03529406 35.77189625 534.58823563c4.5176475 10.16470594 19.2 37.27058812 62.1176475 37.27058812h53.0823525v291.38823469c0 66.63529406 47.43529406 128.75294156 115.2 128.75294156h154.72941187V683.67058812c0-32.75294156-4.5176475-51.95294156 29.36470594-51.95294062h123.10588219c33.8823525 0 29.36470594 18.07058813 29.36470594 51.95294063V992h154.72941187c67.76470594 0 115.2-62.1176475 115.2-128.75294156V571.85882375h53.08235344c42.9176475 0 57.6-27.10588219 62.11764656-37.27058812 6.77647031-14.6823525 11.29411781-48.56470594-25.97647031-86.96470594z m-36.14117625 64.37647031h-112.94117719v351.24705844c0 32.75294156-21.45882375 68.89411781-55.34117625 68.89411781h-94.87058812v-248.47058813c0-66.63529406-21.45882375-111.81176438-89.22352969-111.81176437H451.39542594c-67.76470594 0-89.22352969 45.17647031-89.22352969 111.81176437v248.47058813h-94.87058812c-33.8823525 0-55.34117625-35.01176438-55.34117625-68.89411781V512h-112.94117626c-1.12941187 0-2.25882375-4.5176475-2.25882375-4.5176475 2.25882375-3.38823563 5.64705844-12.42352969 11.29411782-19.2L471.72483781 109.92941188c11.29411781-11.29411781 25.97647031-18.07058813 40.65882375-18.07058813 14.6823525 0 29.36470594 6.77647031 40.65882281 18.07058813l363.67058813 378.35294062c5.64705844 6.77647031 9.03529406 15.81176437 11.29411781 19.2 0 0-1.12941187 4.5176475-2.25882281 4.5176475z" fill="#2c2c2c" p-id="2115"></path></svg>